<?xml version="1.0" encoding="utf-8"?>
<svg version="1.1" xmlns:xlink="http://www.w3.org/1999/xlink" width="172px" height="44px" xmlns="http://www.w3.org/2000/svg">
  <defs>
    <filter x="295px" y="191px" width="172px" height="44px" filterUnits="userSpaceOnUse" id="filter229">
      <feOffset dx="4" dy="4" in="SourceAlpha" result="shadowOffsetInner" />
      <feGaussianBlur stdDeviation="5" in="shadowOffsetInner" result="shadowGaussian" />
      <feComposite in2="shadowGaussian" operator="atop" in="SourceAlpha" result="shadowComposite" />
      <feColorMatrix type="matrix" values="0 0 0 0 0.666666666666667  0 0 0 0 0.666666666666667  0 0 0 0 0.666666666666667  0 0 0 0.349019607843137 0  " in="shadowComposite" />
    </filter>
    <g id="widget230">
      <path d="M 302 202  A 4 4 0 0 1 306 198 L 448 198  A 4 4 0 0 1 452 202 L 452 216  A 4 4 0 0 1 448 220 L 306 220  A 4 4 0 0 1 302 216 L 302 202  Z " fill-rule="nonzero" fill="#facd91" stroke="none" fill-opacity="0.996078431372549" />
      <path d="M 301.5 202  A 4.5 4.5 0 0 1 306 197.5 L 448 197.5  A 4.5 4.5 0 0 1 452.5 202 L 452.5 216  A 4.5 4.5 0 0 1 448 220.5 L 306 220.5  A 4.5 4.5 0 0 1 301.5 216 L 301.5 202  Z " stroke-width="1" stroke="#fc355d" fill="none" stroke-opacity="0.996078431372549" />
    </g>
  </defs>
  <g transform="matrix(1 0 0 1 -295 -191 )">
    <use xlink:href="#widget230" filter="url(#filter229)" />
    <use xlink:href="#widget230" />
  </g>
</svg>