<?xml version="1.0" encoding="utf-8"?>
<svg version="1.1" xmlns:xlink="http://www.w3.org/1999/xlink" width="198px" height="35px" viewBox="-7 -7  198 35" xmlns="http://www.w3.org/2000/svg">
  <defs>
    <filter x="-7px" y="-7px" width="198px" height="35px" filterUnits="userSpaceOnUse" id="filter221">
      <feOffset dx="-2" dy="-2" in="SourceAlpha" result="shadowOffsetInner" />
      <feGaussianBlur stdDeviation="2.5" in="shadowOffsetInner" result="shadowGaussian" />
      <feComposite in2="shadowGaussian" operator="atop" in="SourceAlpha" result="shadowComposite" />
      <feColorMatrix type="matrix" values="0 0 0 0 0.443137254901961  0 0 0 0 0.694117647058824  0 0 0 0 0.980392156862745  0 0 0 0.996078431372549 0  " in="shadowComposite" />
    </filter>
    <g id="widget222">
      <path d="M 1 5  A 4 4 0 0 1 5 1 L 183 1  A 4 4 0 0 1 187 5 L 187 20  A 4 4 0 0 1 183 24 L 5 24  A 4 4 0 0 1 1 20 L 1 5  Z " fill-rule="nonzero" fill="#f0f0f0" stroke="none" />
      <path d="M 0.5 5  A 4.5 4.5 0 0 1 5 0.5 L 183 0.5  A 4.5 4.5 0 0 1 187.5 5 L 187.5 20  A 4.5 4.5 0 0 1 183 24.5 L 5 24.5  A 4.5 4.5 0 0 1 0.5 20 L 0.5 5  Z " stroke-width="1" stroke="#71b1fa" fill="none" stroke-opacity="0.996078431372549" />
    </g>
  </defs>
  <use xlink:href="#widget222" filter="url(#filter221)" />
  <use xlink:href="#widget222" />
</svg>