<?xml version="1.0" encoding="utf-8"?>
<svg version="1.1" xmlns:xlink="http://www.w3.org/1999/xlink" width="172px" height="45px" xmlns="http://www.w3.org/2000/svg">
  <defs>
    <filter x="295px" y="265px" width="172px" height="45px" filterUnits="userSpaceOnUse" id="filter231">
      <feOffset dx="4" dy="4" in="SourceAlpha" result="shadowOffsetInner" />
      <feGaussianBlur stdDeviation="5" in="shadowOffsetInner" result="shadowGaussian" />
      <feComposite in2="shadowGaussian" operator="atop" in="SourceAlpha" result="shadowComposite" />
      <feColorMatrix type="matrix" values="0 0 0 0 0.666666666666667  0 0 0 0 0.666666666666667  0 0 0 0 0.666666666666667  0 0 0 0.349019607843137 0  " in="shadowComposite" />
    </filter>
    <g id="widget232">
      <path d="M 302 276  A 4 4 0 0 1 306 272 L 448 272  A 4 4 0 0 1 452 276 L 452 291  A 4 4 0 0 1 448 295 L 306 295  A 4 4 0 0 1 302 291 L 302 276  Z " fill-rule="nonzero" fill="#facd91" stroke="none" fill-opacity="0.996078431372549" />
      <path d="M 301.5 276  A 4.5 4.5 0 0 1 306 271.5 L 448 271.5  A 4.5 4.5 0 0 1 452.5 276 L 452.5 291  A 4.5 4.5 0 0 1 448 295.5 L 306 295.5  A 4.5 4.5 0 0 1 301.5 291 L 301.5 276  Z " stroke-width="1" stroke="#fc355d" fill="none" stroke-opacity="0.996078431372549" />
    </g>
  </defs>
  <g transform="matrix(1 0 0 1 -295 -265 )">
    <use xlink:href="#widget232" filter="url(#filter231)" />
    <use xlink:href="#widget232" />
  </g>
</svg>