<?xml version="1.0" encoding="utf-8"?>
<svg version="1.1" xmlns:xlink="http://www.w3.org/1999/xlink" width="144px" height="25px" viewBox="213 49  144 25" xmlns="http://www.w3.org/2000/svg">
  <path d="M 214 54  A 4 4 0 0 1 218 50 L 352 50  A 4 4 0 0 1 356 54 L 356 69  A 4 4 0 0 1 352 73 L 218 73  A 4 4 0 0 1 214 69 L 214 54  Z " fill-rule="nonzero" fill="#ffffff" stroke="none" />
  <path d="M 213.5 54  A 4.5 4.5 0 0 1 218 49.5 L 352 49.5  A 4.5 4.5 0 0 1 356.5 54 L 356.5 69  A 4.5 4.5 0 0 1 352 73.5 L 218 73.5  A 4.5 4.5 0 0 1 213.5 69 L 213.5 54  Z " stroke-width="1" stroke="#d7d7d7" fill="none" stroke-opacity="0.996078431372549" />
</svg>