<?xml version="1.0" encoding="utf-8"?>
<svg version="1.1" xmlns:xlink="http://www.w3.org/1999/xlink" width="165px" height="50px" viewBox="126 2  165 50" xmlns="http://www.w3.org/2000/svg">
  <defs>
    <filter x="126px" y="2px" width="165px" height="50px" filterUnits="userSpaceOnUse" id="filter233">
      <feOffset dx="1" dy="1" in="SourceAlpha" result="shadowOffsetInner" />
      <feGaussianBlur stdDeviation="5" in="shadowOffsetInner" result="shadowGaussian" />
      <feComposite in2="shadowGaussian" operator="atop" in="SourceAlpha" result="shadowComposite" />
      <feColorMatrix type="matrix" values="0 0 0 0 0  0 0 0 0 0  0 0 0 0 0  0 0 0 0.349019607843137 0  " in="shadowComposite" />
    </filter>
    <g id="widget234">
      <path d="M 136 16  A 4 4 0 0 1 140 12 L 275 12  A 4 4 0 0 1 279 16 L 279 36  A 4 4 0 0 1 275 40 L 140 40  A 4 4 0 0 1 136 36 L 136 16  Z " fill-rule="nonzero" fill="#ffffff" stroke="none" />
      <path d="M 135.5 16  A 4.5 4.5 0 0 1 140 11.5 L 275 11.5  A 4.5 4.5 0 0 1 279.5 16 L 279.5 36  A 4.5 4.5 0 0 1 275 40.5 L 140 40.5  A 4.5 4.5 0 0 1 135.5 36 L 135.5 16  Z " stroke-width="1" stroke="#d7d7d7" fill="none" stroke-opacity="0.996078431372549" />
    </g>
  </defs>
  <use xlink:href="#widget234" filter="url(#filter233)" />
  <use xlink:href="#widget234" />
</svg>