<?xml version="1.0" encoding="utf-8"?>
<svg version="1.1" xmlns:xlink="http://www.w3.org/1999/xlink" width="25px" height="25px" xmlns="http://www.w3.org/2000/svg">
  <g transform="matrix(1 0 0 1 -15 -10 )">
    <path d="M 15 10  L 40 10  L 40 35  L 15 35  L 15 10  " fill-rule="nonzero" fill="#cccccc" stroke="none" />
    <path d="M 17 12  L 38 12  L 38 33  L 17 33  L 17 12  " fill-rule="nonzero" fill="#ffffff" stroke="none" />
    <path d="M 29.875 17.5  C 28.825 17.5  28 16.675  28 15.625  C 28 14.575  28.825 13.75  29.875 13.75  C 30.925 13.75  31.75 14.575  31.75 15.625  C 31.75 16.675  30.925 17.5  29.875 17.5  " fill-rule="nonzero" fill="#cccccc" stroke="none" />
    <path d="M 18 33  L 18 22  L 23 17  L 30 21  L 34 20  L 38 21  L 38 33  L 18 33  " fill-rule="nonzero" fill="#169bd5" stroke="none" />
  </g>
</svg>