<?xml version="1.0" encoding="utf-8"?>
<svg version="1.1" xmlns:xlink="http://www.w3.org/1999/xlink" width="15px" height="15px" xmlns="http://www.w3.org/2000/svg">
  <g transform="matrix(1 0 0 1 -140 -15 )">
    <path d="M 140 15  L 155 15  L 155 30  L 140 30  L 140 15  " fill-rule="nonzero" fill="#cccccc" stroke="none" />
    <path d="M 141 16  L 154 16  L 154 29  L 141 29  L 141 16  " fill-rule="nonzero" fill="#ffffff" stroke="none" />
    <path d="M 148.925 19.5  C 148.295 19.5  147.8 19.005  147.8 18.375  C 147.8 17.745  148.295 17.25  148.925 17.25  C 149.555 17.25  150.05 17.745  150.05 18.375  C 150.05 19.005  149.555 19.5  148.925 19.5  " fill-rule="nonzero" fill="#cccccc" stroke="none" />
    <path d="M 142 29  L 142 22.4  L 145 19.4  L 149.2 21.8  L 151.6 21.2  L 154 21.8  L 154 29  L 142 29  " fill-rule="nonzero" fill="#169bd5" stroke="none" />
  </g>
</svg>