<?xml version="1.0" encoding="utf-8"?>
<svg version="1.1" xmlns:xlink="http://www.w3.org/1999/xlink" width="4px" height="6px" xmlns="http://www.w3.org/2000/svg">
  <g transform="matrix(1 0 0 1 -12 -5 )">
    <path d="M 0.3625 0  L 3.6375 0  C 3.68541666666667 0  3.73125 0.0118968935888963  3.775 0.035690680766689  C 3.84375 0.0700594844679436  3.8984375 0.124256444150694  3.9390625 0.198281559814937  C 3.9796875 0.27230667547918  4 0.354263053536021  4 0.444150693985459  L 4 5.55584930601454  C 4 5.64573694646398  3.9796875 5.72769332452082  3.9390625 5.80171844018506  C 3.8984375 5.87574355584931  3.84375 5.92994051553205  3.775 5.96430931923331  C 3.73541666666667 5.98545935228024  3.68958333333333 5.9960343688037  3.6375 5.9960343688037  C 3.5375 5.9960343688037  3.45104166666667 5.95373430270985  3.378125 5.86913417052214  L 2 4.18770654329147  L 0.621875 5.86913417052214  C 0.546875 5.95637805684071  0.460416666666667 6  0.3625 6  C 0.314583333333333 6  0.26875 5.9881031064111  0.225 5.96430931923331  C 0.15625 5.92994051553205  0.1015625 5.87574355584931  0.0609375 5.80171844018506  C 0.0203125 5.72769332452082  0 5.64573694646398  0 5.55584930601454  L 0 0.444150693985459  C 0 0.354263053536021  0.0203125 0.27230667547918  0.0609375 0.198281559814937  C 0.1015625 0.124256444150694  0.15625 0.0700594844679436  0.225 0.035690680766689  C 0.26875 0.0118968935888963  0.314583333333333 0  0.3625 0  Z " fill-rule="nonzero" fill="#ffffff" stroke="none" transform="matrix(1 0 0 1 12 5 )" />
  </g>
</svg>