<?xml version="1.0" encoding="utf-8"?>
<svg version="1.1" xmlns:xlink="http://www.w3.org/1999/xlink" width="5px" height="6px" xmlns="http://www.w3.org/2000/svg">
  <g transform="matrix(1 0 0 1 -73 -9 )">
    <path d="M 4.966796875 4.337890625  C 4.98893229166667 4.53450520833333  5 4.74348958333333  5 4.96484375  C 5 5.24869791666667  4.91861979166667 5.4921875  4.755859375 5.6953125  C 4.59309895833333 5.8984375  4.39713541666667 6  4.16796875 6  L 0.83203125 6  C 0.602864583333333 6  0.406901041666667 5.8984375  0.244140625 5.6953125  C 0.0813802083333334 5.4921875  0 5.24869791666667  0 4.96484375  C 0 4.74348958333333  0.0110677083333334 4.53450520833333  0.033203125 4.337890625  C 0.0553385416666667 4.14127604166667  0.0963541666666667 3.943359375  0.15625 3.744140625  C 0.216145833333333 3.544921875  0.292317708333333 3.37434895833333  0.384765625 3.232421875  C 0.477213541666667 3.09049479166667  0.599609375 2.974609375  0.751953125 2.884765625  C 0.904296875 2.794921875  1.07942708333333 2.75  1.27734375 2.75  C 1.61848958333333 3.08333333333333  2.02604166666667 3.25  2.5 3.25  C 2.97395833333333 3.25  3.38151041666667 3.08333333333333  3.72265625 2.75  C 3.92057291666667 2.75  4.095703125 2.794921875  4.248046875 2.884765625  C 4.400390625 2.974609375  4.52278645833333 3.09049479166667  4.615234375 3.232421875  C 4.70768229166667 3.37434895833333  4.78385416666667 3.544921875  4.84375 3.744140625  C 4.90364583333333 3.943359375  4.94466145833333 4.14127604166667  4.966796875 4.337890625  Z M 3.560546875 0.439453125  C 3.853515625 0.732421875  4 1.0859375  4 1.5  C 4 1.9140625  3.853515625 2.267578125  3.560546875 2.560546875  C 3.267578125 2.853515625  2.9140625 3  2.5 3  C 2.0859375 3  1.732421875 2.853515625  1.439453125 2.560546875  C 1.146484375 2.267578125  1 1.9140625  1 1.5  C 1 1.0859375  1.146484375 0.732421875  1.439453125 0.439453125  C 1.732421875 0.146484375  2.0859375 0  2.5 0  C 2.9140625 0  3.267578125 0.146484375  3.560546875 0.439453125  Z " fill-rule="nonzero" fill="#ffffff" stroke="none" transform="matrix(1 0 0 1 73 9 )" />
  </g>
</svg>