<?xml version="1.0" encoding="utf-8"?>
<svg version="1.1" xmlns:xlink="http://www.w3.org/1999/xlink" width="50px" height="50px" xmlns="http://www.w3.org/2000/svg">
  <defs>
    <mask fill="white" id="clip237">
      <path d="M 14 65  C 11.78 65  10 63.22  10 61  L 10 19  C 10 16.78  11.78 15  14 15  L 56 15  C 58.22 15  60 16.78  60 19  L 60 61  C 60 63.22  58.22 65  56 65  " fill-rule="evenodd" />
    </mask>
  </defs>
  <g transform="matrix(1 0 0 1 -10 -15 )">
    <path d="M 10 15  L 60 15  L 60 65  L 10 65  L 10 15  " fill-rule="nonzero" fill="#cccccc" stroke="none" mask="url(#clip237)" />
    <path d="M 14 19  L 56 19  L 56 61  L 14 61  L 14 19  " fill-rule="nonzero" fill="#ffffff" stroke="none" mask="url(#clip237)" />
    <path d="M 39.75 30  C 37.65 30  36 28.35  36 26.25  C 36 24.15  37.65 22.5  39.75 22.5  C 41.85 22.5  43.5 24.15  43.5 26.25  C 43.5 28.35  41.85 30  39.75 30  " fill-rule="nonzero" fill="#cccccc" stroke="none" mask="url(#clip237)" />
    <path d="M 16 60  L 16 38.55  L 25.75 28.8  L 39.4 36.6  L 47.2 34.65  L 55 36.6  L 55 60  L 16 60  " fill-rule="nonzero" fill="#169bd5" stroke="none" mask="url(#clip237)" />
  </g>
</svg>